<mxfile host="Electron" modified="2023-11-26T13:27:27.397Z" agent="Mozilla/5.0 (X11; Linux x86_64) AppleWebKit/537.36 (KHTML, like Gecko) draw.io/21.5.0 Chrome/112.0.5615.204 Electron/24.5.1 Safari/537.36" etag="YQF8ETW5C25bqf7WYmXk" version="21.5.0" type="device">
  <diagram name="Page-1" id="K7GRn2iWZPZHS3RIuApX">
    <mxGraphModel dx="1444" dy="1952" grid="1" gridSize="10" guides="1" tooltips="1" connect="1" arrows="1" fold="1" page="1" pageScale="1" pageWidth="850" pageHeight="1100" math="0" shadow="0">
      <root>
        <mxCell id="0" />
        <mxCell id="1" parent="0" />
        <mxCell id="nBIdGO6KBgO2Cm43uwUa-82" value="" style="rounded=0;whiteSpace=wrap;html=1;fillColor=#d5e8d4;strokeColor=#82b366;" parent="1" vertex="1">
          <mxGeometry x="-90" y="1100" width="450" height="400" as="geometry" />
        </mxCell>
        <mxCell id="nBIdGO6KBgO2Cm43uwUa-16" value="" style="rounded=0;whiteSpace=wrap;html=1;fillColor=#d5e8d4;strokeColor=#82b366;" parent="1" vertex="1">
          <mxGeometry x="10" y="10" width="350" height="320" as="geometry" />
        </mxCell>
        <mxCell id="nBIdGO6KBgO2Cm43uwUa-13" value="" style="rounded=0;whiteSpace=wrap;html=1;fillColor=#f8cecc;strokeColor=#b85450;" parent="1" vertex="1">
          <mxGeometry x="20" y="20" width="330" height="280" as="geometry" />
        </mxCell>
        <mxCell id="nBIdGO6KBgO2Cm43uwUa-12" value="" style="rounded=0;whiteSpace=wrap;html=1;fillColor=#f5f5f5;strokeColor=#666666;fontColor=#333333;" parent="1" vertex="1">
          <mxGeometry x="30" y="30" width="310" height="240" as="geometry" />
        </mxCell>
        <mxCell id="nBIdGO6KBgO2Cm43uwUa-2" value="" style="rounded=0;whiteSpace=wrap;html=1;fillColor=#dae8fc;strokeColor=#6c8ebf;" parent="1" vertex="1">
          <mxGeometry x="40" y="40" width="140" height="200" as="geometry" />
        </mxCell>
        <mxCell id="nBIdGO6KBgO2Cm43uwUa-3" value="QPushButton" style="rounded=0;whiteSpace=wrap;html=1;" parent="1" vertex="1">
          <mxGeometry x="50" y="50" width="120" height="20" as="geometry" />
        </mxCell>
        <mxCell id="nBIdGO6KBgO2Cm43uwUa-5" value="QLabel" style="rounded=0;whiteSpace=wrap;html=1;" parent="1" vertex="1">
          <mxGeometry x="50" y="80" width="120" height="110" as="geometry" />
        </mxCell>
        <mxCell id="nBIdGO6KBgO2Cm43uwUa-6" value="" style="rounded=0;whiteSpace=wrap;html=1;fillColor=#dae8fc;strokeColor=#6c8ebf;" parent="1" vertex="1">
          <mxGeometry x="190" y="40" width="140" height="200" as="geometry" />
        </mxCell>
        <mxCell id="nBIdGO6KBgO2Cm43uwUa-7" value="QVBoxLayout" style="text;html=1;strokeColor=none;fillColor=none;align=center;verticalAlign=middle;whiteSpace=wrap;rounded=0;" parent="1" vertex="1">
          <mxGeometry x="40" y="220" width="90" height="20" as="geometry" />
        </mxCell>
        <mxCell id="nBIdGO6KBgO2Cm43uwUa-9" value="QLabel" style="rounded=0;whiteSpace=wrap;html=1;" parent="1" vertex="1">
          <mxGeometry x="200" y="50" width="120" height="20" as="geometry" />
        </mxCell>
        <mxCell id="nBIdGO6KBgO2Cm43uwUa-10" value="QLineEdit" style="rounded=0;whiteSpace=wrap;html=1;" parent="1" vertex="1">
          <mxGeometry x="200" y="80" width="120" height="110" as="geometry" />
        </mxCell>
        <mxCell id="nBIdGO6KBgO2Cm43uwUa-11" value="QVBoxLayout" style="text;html=1;strokeColor=none;fillColor=none;align=center;verticalAlign=middle;whiteSpace=wrap;rounded=0;" parent="1" vertex="1">
          <mxGeometry x="190" y="220" width="90" height="20" as="geometry" />
        </mxCell>
        <mxCell id="nBIdGO6KBgO2Cm43uwUa-14" value="QHBoxLayout" style="text;html=1;strokeColor=none;fillColor=none;align=center;verticalAlign=middle;whiteSpace=wrap;rounded=0;" parent="1" vertex="1">
          <mxGeometry x="30" y="250" width="90" height="20" as="geometry" />
        </mxCell>
        <mxCell id="nBIdGO6KBgO2Cm43uwUa-15" value="QWidget" style="text;html=1;strokeColor=none;fillColor=none;align=center;verticalAlign=middle;whiteSpace=wrap;rounded=0;" parent="1" vertex="1">
          <mxGeometry x="20" y="280" width="60" height="20" as="geometry" />
        </mxCell>
        <mxCell id="nBIdGO6KBgO2Cm43uwUa-17" value="QMainWindow" style="text;html=1;strokeColor=none;fillColor=none;align=center;verticalAlign=middle;whiteSpace=wrap;rounded=0;" parent="1" vertex="1">
          <mxGeometry x="10" y="310" width="90" height="20" as="geometry" />
        </mxCell>
        <mxCell id="nBIdGO6KBgO2Cm43uwUa-18" value="&lt;font style=&quot;background-color: rgb(255, 255, 153);&quot; data-font-src=&quot;https://fonts.googleapis.com/css?family=Roboto+Mono&quot; face=&quot;Roboto Mono&quot;&gt;self.setMainWindowTitle(&quot;ASCII Moai&quot;)&lt;/font&gt;" style="text;html=1;strokeColor=none;fillColor=none;align=left;verticalAlign=middle;whiteSpace=wrap;rounded=0;spacingLeft=2;" parent="1" vertex="1">
          <mxGeometry x="10" y="-10" width="290" height="20" as="geometry" />
        </mxCell>
        <mxCell id="nBIdGO6KBgO2Cm43uwUa-19" value="" style="curved=1;endArrow=classic;html=1;rounded=0;entryX=0.456;entryY=1.11;entryDx=0;entryDy=0;entryPerimeter=0;" parent="1" target="nBIdGO6KBgO2Cm43uwUa-17" edge="1">
          <mxGeometry width="50" height="50" relative="1" as="geometry">
            <mxPoint x="80" y="370" as="sourcePoint" />
            <mxPoint x="150" y="350" as="targetPoint" />
            <Array as="points">
              <mxPoint x="50" y="370" />
            </Array>
          </mxGeometry>
        </mxCell>
        <mxCell id="nBIdGO6KBgO2Cm43uwUa-20" value="&lt;font style=&quot;background-color: rgb(255, 255, 153);&quot; face=&quot;Roboto Mono&quot;&gt;self.setMinimumSize(QSize(800, 400))&lt;/font&gt;" style="text;html=1;strokeColor=none;fillColor=none;align=left;verticalAlign=middle;whiteSpace=wrap;rounded=0;spacingLeft=2;" parent="1" vertex="1">
          <mxGeometry x="80" y="360" width="270" height="20" as="geometry" />
        </mxCell>
        <mxCell id="nBIdGO6KBgO2Cm43uwUa-21" value="" style="curved=1;endArrow=classic;html=1;rounded=0;entryX=0;entryY=0.5;entryDx=0;entryDy=0;" parent="1" target="nBIdGO6KBgO2Cm43uwUa-3" edge="1">
          <mxGeometry width="50" height="50" relative="1" as="geometry">
            <mxPoint x="-60" y="30" as="sourcePoint" />
            <mxPoint x="-59" y="70" as="targetPoint" />
            <Array as="points">
              <mxPoint x="-60" y="60" />
            </Array>
          </mxGeometry>
        </mxCell>
        <mxCell id="nBIdGO6KBgO2Cm43uwUa-22" value="&lt;font style=&quot;background-color: rgb(255, 255, 153);&quot; data-font-src=&quot;https://fonts.googleapis.com/css?family=Roboto+Mono&quot; face=&quot;Roboto Mono&quot;&gt;button = QPushButton(&quot;Load image&quot;)&lt;/font&gt;" style="text;html=1;strokeColor=none;fillColor=none;align=right;verticalAlign=middle;whiteSpace=wrap;rounded=0;spacingLeft=2;spacingRight=2;" parent="1" vertex="1">
          <mxGeometry x="-260" width="260" height="20" as="geometry" />
        </mxCell>
        <mxCell id="nBIdGO6KBgO2Cm43uwUa-23" value="" style="curved=1;endArrow=classic;html=1;rounded=0;entryX=0;entryY=0.5;entryDx=0;entryDy=0;" parent="1" target="nBIdGO6KBgO2Cm43uwUa-5" edge="1">
          <mxGeometry width="50" height="50" relative="1" as="geometry">
            <mxPoint x="-60" y="160" as="sourcePoint" />
            <mxPoint x="50" y="140" as="targetPoint" />
            <Array as="points">
              <mxPoint x="-60" y="130" />
            </Array>
          </mxGeometry>
        </mxCell>
        <mxCell id="nBIdGO6KBgO2Cm43uwUa-24" value="&lt;font data-font-src=&quot;https://fonts.googleapis.com/css?family=Roboto+Mono&quot; face=&quot;Roboto Mono&quot;&gt;&lt;span style=&quot;background-color: rgb(255, 255, 153);&quot;&gt;self.load_image = QLabel(&quot;An opened image will be here&quot;)&lt;br&gt;self.load_image.setAlignment(Qt.AlignTop)&lt;/span&gt;&lt;br&gt;&lt;/font&gt;" style="text;html=1;strokeColor=none;fillColor=none;align=left;verticalAlign=middle;whiteSpace=wrap;rounded=0;spacingLeft=2;spacingRight=2;" parent="1" vertex="1">
          <mxGeometry x="-410" y="160" width="410" height="40" as="geometry" />
        </mxCell>
        <mxCell id="nBIdGO6KBgO2Cm43uwUa-26" value="" style="curved=1;endArrow=classic;html=1;rounded=0;entryX=0;entryY=0.5;entryDx=0;entryDy=0;" parent="1" edge="1">
          <mxGeometry width="50" height="50" relative="1" as="geometry">
            <mxPoint x="430" y="30" as="sourcePoint" />
            <mxPoint x="320" y="60" as="targetPoint" />
            <Array as="points">
              <mxPoint x="430" y="60" />
            </Array>
          </mxGeometry>
        </mxCell>
        <mxCell id="nBIdGO6KBgO2Cm43uwUa-27" value="&lt;div&gt;&lt;font style=&quot;background-color: rgb(255, 255, 153);&quot; face=&quot;Roboto Mono&quot;&gt;label = QLabel(&quot;ASCII image&quot;)&lt;/font&gt;&lt;/div&gt;&lt;div&gt;&lt;font style=&quot;background-color: rgb(255, 255, 153);&quot; face=&quot;Roboto Mono&quot;&gt;label.setAlignment(Qt.AlignTop)&lt;/font&gt;&lt;/div&gt;" style="text;html=1;strokeColor=none;fillColor=none;align=left;verticalAlign=middle;whiteSpace=wrap;rounded=0;spacingLeft=2;spacingRight=2;" parent="1" vertex="1">
          <mxGeometry x="370" y="-10" width="230" height="40" as="geometry" />
        </mxCell>
        <mxCell id="nBIdGO6KBgO2Cm43uwUa-28" value="" style="curved=1;endArrow=classic;html=1;rounded=0;entryX=0;entryY=0.5;entryDx=0;entryDy=0;" parent="1" edge="1">
          <mxGeometry width="50" height="50" relative="1" as="geometry">
            <mxPoint x="430" y="165" as="sourcePoint" />
            <mxPoint x="320" y="140" as="targetPoint" />
            <Array as="points">
              <mxPoint x="430" y="135" />
            </Array>
          </mxGeometry>
        </mxCell>
        <mxCell id="nBIdGO6KBgO2Cm43uwUa-29" value="&lt;div&gt;&lt;font style=&quot;background-color: rgb(255, 255, 153);&quot; face=&quot;Roboto Mono&quot;&gt;self.ascii_image = QTextEdit(&quot;Converted ASCII image will be here&quot;)&lt;/font&gt;&lt;/div&gt;&lt;div&gt;&lt;span style=&quot;background-color: rgb(255, 255, 153);&quot;&gt;&lt;font style=&quot;&quot; face=&quot;Roboto Mono&quot;&gt;self.ascii_image.setAlignment(Qt.AlignTop)&lt;/font&gt;&lt;span style=&quot;font-family: &amp;quot;Roboto Mono&amp;quot;;&quot;&gt;&amp;nbsp; &amp;nbsp; self.ascii_image.setTextInteractionFlags(Qt.TextSelectableByMouse)&lt;/span&gt;&lt;/span&gt;&lt;br&gt;&lt;/div&gt;" style="text;html=1;strokeColor=none;fillColor=none;align=left;verticalAlign=middle;whiteSpace=wrap;rounded=0;spacingLeft=2;spacingRight=2;" parent="1" vertex="1">
          <mxGeometry x="370" y="160" width="480" height="60" as="geometry" />
        </mxCell>
        <mxCell id="nBIdGO6KBgO2Cm43uwUa-30" value="&lt;font size=&quot;1&quot; style=&quot;&quot;&gt;&lt;b style=&quot;font-size: 26px;&quot;&gt;1&lt;/b&gt;&lt;/font&gt;" style="ellipse;whiteSpace=wrap;html=1;aspect=fixed;" parent="1" vertex="1">
          <mxGeometry x="-200" y="80" width="40" height="40" as="geometry" />
        </mxCell>
        <mxCell id="nBIdGO6KBgO2Cm43uwUa-31" value="&lt;font size=&quot;1&quot; style=&quot;&quot;&gt;&lt;b style=&quot;font-size: 26px;&quot;&gt;2&lt;/b&gt;&lt;/font&gt;" style="ellipse;whiteSpace=wrap;html=1;aspect=fixed;" parent="1" vertex="1">
          <mxGeometry x="-200" y="440" width="40" height="40" as="geometry" />
        </mxCell>
        <mxCell id="nBIdGO6KBgO2Cm43uwUa-32" value="" style="rounded=0;whiteSpace=wrap;html=1;fillColor=#dae8fc;strokeColor=#6c8ebf;" parent="1" vertex="1">
          <mxGeometry x="-80" y="440" width="250" height="250" as="geometry" />
        </mxCell>
        <mxCell id="nBIdGO6KBgO2Cm43uwUa-33" value="&lt;font style=&quot;background-color: rgb(255, 255, 153);&quot; data-font-src=&quot;https://fonts.googleapis.com/css?family=Roboto+Mono&quot; face=&quot;Roboto Mono&quot;&gt;layout_vert_left = QVBoxLayout()&lt;/font&gt;" style="text;html=1;strokeColor=none;fillColor=none;align=center;verticalAlign=middle;whiteSpace=wrap;rounded=0;" parent="1" vertex="1">
          <mxGeometry x="-80" y="670" width="240" height="20" as="geometry" />
        </mxCell>
        <mxCell id="nBIdGO6KBgO2Cm43uwUa-34" value="QLabel" style="rounded=0;whiteSpace=wrap;html=1;" parent="1" vertex="1">
          <mxGeometry x="-60" y="530" width="120" height="110" as="geometry" />
        </mxCell>
        <mxCell id="nBIdGO6KBgO2Cm43uwUa-35" value="QPushButton" style="rounded=0;whiteSpace=wrap;html=1;" parent="1" vertex="1">
          <mxGeometry x="-60" y="470" width="120" height="20" as="geometry" />
        </mxCell>
        <mxCell id="nBIdGO6KBgO2Cm43uwUa-36" value="" style="curved=1;endArrow=oval;html=1;rounded=0;entryX=0.001;entryY=0.057;entryDx=0;entryDy=0;entryPerimeter=0;exitX=0.5;exitY=0;exitDx=0;exitDy=0;endFill=1;" parent="1" source="nBIdGO6KBgO2Cm43uwUa-35" target="nBIdGO6KBgO2Cm43uwUa-32" edge="1">
          <mxGeometry width="50" height="50" relative="1" as="geometry">
            <mxPoint x="-10" y="478" as="sourcePoint" />
            <mxPoint x="-39" y="440" as="targetPoint" />
            <Array as="points">
              <mxPoint y="450" />
            </Array>
          </mxGeometry>
        </mxCell>
        <mxCell id="nBIdGO6KBgO2Cm43uwUa-37" value="" style="curved=1;endArrow=oval;html=1;rounded=0;entryX=0.001;entryY=0.057;entryDx=0;entryDy=0;entryPerimeter=0;exitX=0.5;exitY=0;exitDx=0;exitDy=0;endFill=1;" parent="1" edge="1">
          <mxGeometry width="50" height="50" relative="1" as="geometry">
            <mxPoint y="530" as="sourcePoint" />
            <mxPoint x="-80" y="515" as="targetPoint" />
            <Array as="points">
              <mxPoint y="510" />
            </Array>
          </mxGeometry>
        </mxCell>
        <mxCell id="nBIdGO6KBgO2Cm43uwUa-38" value="&lt;font style=&quot;font-size: 10px; background-color: rgb(255, 255, 153);&quot; data-font-src=&quot;https://fonts.googleapis.com/css?family=Roboto+Mono&quot; face=&quot;Roboto Mono&quot;&gt;layout_vert_left.addWidget(self.load_image)&lt;/font&gt;" style="text;html=1;strokeColor=none;fillColor=none;align=left;verticalAlign=middle;whiteSpace=wrap;rounded=0;spacingLeft=2;" parent="1" vertex="1">
          <mxGeometry y="500" width="240" height="20" as="geometry" />
        </mxCell>
        <mxCell id="nBIdGO6KBgO2Cm43uwUa-39" value="&lt;font style=&quot;font-size: 10px; background-color: rgb(255, 255, 153);&quot; data-font-src=&quot;https://fonts.googleapis.com/css?family=Roboto+Mono&quot; face=&quot;Roboto Mono&quot;&gt;layout_vert_left.addWidget(button)&lt;/font&gt;" style="text;html=1;strokeColor=none;fillColor=none;align=left;verticalAlign=middle;whiteSpace=wrap;rounded=0;spacingLeft=2;" parent="1" vertex="1">
          <mxGeometry y="440" width="240" height="20" as="geometry" />
        </mxCell>
        <mxCell id="nBIdGO6KBgO2Cm43uwUa-40" value="" style="rounded=0;whiteSpace=wrap;html=1;fillColor=#dae8fc;strokeColor=#6c8ebf;" parent="1" vertex="1">
          <mxGeometry x="310" y="440" width="250" height="250" as="geometry" />
        </mxCell>
        <mxCell id="nBIdGO6KBgO2Cm43uwUa-41" value="&lt;font style=&quot;background-color: rgb(255, 255, 153);&quot; data-font-src=&quot;https://fonts.googleapis.com/css?family=Roboto+Mono&quot; face=&quot;Roboto Mono&quot;&gt;layout_vert_right = QVBoxLayout()&lt;/font&gt;" style="text;html=1;strokeColor=none;fillColor=none;align=center;verticalAlign=middle;whiteSpace=wrap;rounded=0;" parent="1" vertex="1">
          <mxGeometry x="310" y="670" width="250" height="20" as="geometry" />
        </mxCell>
        <mxCell id="nBIdGO6KBgO2Cm43uwUa-42" value="QLineEdit" style="rounded=0;whiteSpace=wrap;html=1;" parent="1" vertex="1">
          <mxGeometry x="330" y="530" width="120" height="110" as="geometry" />
        </mxCell>
        <mxCell id="nBIdGO6KBgO2Cm43uwUa-43" value="QLabel" style="rounded=0;whiteSpace=wrap;html=1;" parent="1" vertex="1">
          <mxGeometry x="330" y="470" width="120" height="20" as="geometry" />
        </mxCell>
        <mxCell id="nBIdGO6KBgO2Cm43uwUa-44" value="" style="curved=1;endArrow=oval;html=1;rounded=0;entryX=0.001;entryY=0.057;entryDx=0;entryDy=0;entryPerimeter=0;exitX=0.5;exitY=0;exitDx=0;exitDy=0;endFill=1;" parent="1" source="nBIdGO6KBgO2Cm43uwUa-43" target="nBIdGO6KBgO2Cm43uwUa-40" edge="1">
          <mxGeometry width="50" height="50" relative="1" as="geometry">
            <mxPoint x="380" y="478" as="sourcePoint" />
            <mxPoint x="351" y="440" as="targetPoint" />
            <Array as="points">
              <mxPoint x="390" y="450" />
            </Array>
          </mxGeometry>
        </mxCell>
        <mxCell id="nBIdGO6KBgO2Cm43uwUa-45" value="" style="curved=1;endArrow=oval;html=1;rounded=0;entryX=0.001;entryY=0.057;entryDx=0;entryDy=0;entryPerimeter=0;exitX=0.5;exitY=0;exitDx=0;exitDy=0;endFill=1;" parent="1" edge="1">
          <mxGeometry width="50" height="50" relative="1" as="geometry">
            <mxPoint x="390" y="530" as="sourcePoint" />
            <mxPoint x="310" y="515" as="targetPoint" />
            <Array as="points">
              <mxPoint x="390" y="510" />
            </Array>
          </mxGeometry>
        </mxCell>
        <mxCell id="nBIdGO6KBgO2Cm43uwUa-46" value="&lt;font style=&quot;font-size: 10px; background-color: rgb(255, 255, 153);&quot; data-font-src=&quot;https://fonts.googleapis.com/css?family=Roboto+Mono&quot; face=&quot;Roboto Mono&quot;&gt;layout_vert_right.addWidget(self.ascii_image, 10)&lt;/font&gt;" style="text;html=1;strokeColor=none;fillColor=none;align=left;verticalAlign=middle;whiteSpace=wrap;rounded=0;spacingLeft=2;" parent="1" vertex="1">
          <mxGeometry x="390" y="500" width="300" height="20" as="geometry" />
        </mxCell>
        <mxCell id="nBIdGO6KBgO2Cm43uwUa-47" value="&lt;font style=&quot;font-size: 10px; background-color: rgb(255, 255, 153);&quot; data-font-src=&quot;https://fonts.googleapis.com/css?family=Roboto+Mono&quot; face=&quot;Roboto Mono&quot;&gt;layout_vert_right.addWidget(label)&lt;/font&gt;" style="text;html=1;strokeColor=none;fillColor=none;align=left;verticalAlign=middle;whiteSpace=wrap;rounded=0;spacingLeft=2;" parent="1" vertex="1">
          <mxGeometry x="390" y="440" width="240" height="20" as="geometry" />
        </mxCell>
        <mxCell id="nBIdGO6KBgO2Cm43uwUa-48" value="" style="rounded=0;whiteSpace=wrap;html=1;fillColor=#f5f5f5;strokeColor=#666666;fontColor=#333333;" parent="1" vertex="1">
          <mxGeometry x="-20" y="730.87" width="490" height="290" as="geometry" />
        </mxCell>
        <mxCell id="nBIdGO6KBgO2Cm43uwUa-51" value="&lt;span style=&quot;background-color: rgb(255, 255, 153);&quot;&gt;layout_hort = QHBoxLayout()&lt;/span&gt;" style="text;html=1;strokeColor=none;fillColor=none;align=center;verticalAlign=middle;whiteSpace=wrap;rounded=0;" parent="1" vertex="1">
          <mxGeometry x="-20" y="1000.87" width="170" height="20" as="geometry" />
        </mxCell>
        <mxCell id="nBIdGO6KBgO2Cm43uwUa-60" value="" style="group" parent="1" vertex="1" connectable="0">
          <mxGeometry x="290" y="760.87" width="140" height="200" as="geometry" />
        </mxCell>
        <mxCell id="nBIdGO6KBgO2Cm43uwUa-49" value="QVBoxLayout" style="text;html=1;strokeColor=none;fillColor=none;align=center;verticalAlign=middle;whiteSpace=wrap;rounded=0;" parent="nBIdGO6KBgO2Cm43uwUa-60" vertex="1">
          <mxGeometry y="180" width="90" height="20" as="geometry" />
        </mxCell>
        <mxCell id="nBIdGO6KBgO2Cm43uwUa-53" value="" style="rounded=0;whiteSpace=wrap;html=1;fillColor=#dae8fc;strokeColor=#6c8ebf;" parent="nBIdGO6KBgO2Cm43uwUa-60" vertex="1">
          <mxGeometry width="140" height="200" as="geometry" />
        </mxCell>
        <mxCell id="nBIdGO6KBgO2Cm43uwUa-54" value="QLineEdit" style="rounded=0;whiteSpace=wrap;html=1;" parent="nBIdGO6KBgO2Cm43uwUa-60" vertex="1">
          <mxGeometry x="10" y="40" width="120" height="110" as="geometry" />
        </mxCell>
        <mxCell id="nBIdGO6KBgO2Cm43uwUa-57" value="QLabel" style="rounded=0;whiteSpace=wrap;html=1;" parent="nBIdGO6KBgO2Cm43uwUa-60" vertex="1">
          <mxGeometry x="10" y="10" width="120" height="20" as="geometry" />
        </mxCell>
        <mxCell id="nBIdGO6KBgO2Cm43uwUa-59" value="QVBoxLayout" style="text;html=1;strokeColor=none;fillColor=none;align=center;verticalAlign=middle;whiteSpace=wrap;rounded=0;" parent="nBIdGO6KBgO2Cm43uwUa-60" vertex="1">
          <mxGeometry y="180" width="90" height="20" as="geometry" />
        </mxCell>
        <mxCell id="nBIdGO6KBgO2Cm43uwUa-61" value="" style="group" parent="1" vertex="1" connectable="0">
          <mxGeometry x="10" y="760.87" width="140" height="200" as="geometry" />
        </mxCell>
        <mxCell id="nBIdGO6KBgO2Cm43uwUa-50" value="QVBoxLayout" style="text;html=1;strokeColor=none;fillColor=none;align=center;verticalAlign=middle;whiteSpace=wrap;rounded=0;" parent="nBIdGO6KBgO2Cm43uwUa-61" vertex="1">
          <mxGeometry y="180" width="90" height="20" as="geometry" />
        </mxCell>
        <mxCell id="nBIdGO6KBgO2Cm43uwUa-52" value="" style="rounded=0;whiteSpace=wrap;html=1;fillColor=#dae8fc;strokeColor=#6c8ebf;" parent="nBIdGO6KBgO2Cm43uwUa-61" vertex="1">
          <mxGeometry width="140" height="200" as="geometry" />
        </mxCell>
        <mxCell id="nBIdGO6KBgO2Cm43uwUa-55" value="QLabel" style="rounded=0;whiteSpace=wrap;html=1;" parent="nBIdGO6KBgO2Cm43uwUa-61" vertex="1">
          <mxGeometry x="10" y="40" width="120" height="110" as="geometry" />
        </mxCell>
        <mxCell id="nBIdGO6KBgO2Cm43uwUa-56" value="QPushButton" style="rounded=0;whiteSpace=wrap;html=1;" parent="nBIdGO6KBgO2Cm43uwUa-61" vertex="1">
          <mxGeometry x="10" y="10" width="120" height="20" as="geometry" />
        </mxCell>
        <mxCell id="nBIdGO6KBgO2Cm43uwUa-58" value="QVBoxLayout" style="text;html=1;strokeColor=none;fillColor=none;align=center;verticalAlign=middle;whiteSpace=wrap;rounded=0;" parent="nBIdGO6KBgO2Cm43uwUa-61" vertex="1">
          <mxGeometry y="180" width="90" height="20" as="geometry" />
        </mxCell>
        <mxCell id="nBIdGO6KBgO2Cm43uwUa-62" value="" style="curved=1;endArrow=oval;html=1;rounded=0;entryX=0.041;entryY=-0.003;entryDx=0;entryDy=0;entryPerimeter=0;exitX=0;exitY=0.25;exitDx=0;exitDy=0;endFill=1;" parent="1" source="nBIdGO6KBgO2Cm43uwUa-52" target="nBIdGO6KBgO2Cm43uwUa-48" edge="1">
          <mxGeometry width="50" height="50" relative="1" as="geometry">
            <mxPoint x="120" y="760.87" as="sourcePoint" />
            <mxPoint x="40" y="745.87" as="targetPoint" />
            <Array as="points">
              <mxPoint x="-10" y="790.87" />
            </Array>
          </mxGeometry>
        </mxCell>
        <mxCell id="nBIdGO6KBgO2Cm43uwUa-63" value="&lt;font face=&quot;Roboto Mono&quot;&gt;&lt;span style=&quot;font-size: 10px; background-color: rgb(255, 255, 153);&quot;&gt;layout_hort.addLayout(layout_vert_left)&lt;/span&gt;&lt;/font&gt;" style="text;html=1;strokeColor=none;fillColor=none;align=left;verticalAlign=middle;whiteSpace=wrap;rounded=0;spacingLeft=2;" parent="1" vertex="1">
          <mxGeometry y="730.87" width="240" height="20" as="geometry" />
        </mxCell>
        <mxCell id="nBIdGO6KBgO2Cm43uwUa-64" value="&lt;font face=&quot;Roboto Mono&quot;&gt;&lt;span style=&quot;font-size: 10px; background-color: rgb(255, 255, 153);&quot;&gt;layout_hort.addLayout(layout_vert_right)&lt;/span&gt;&lt;/font&gt;" style="text;html=1;strokeColor=none;fillColor=none;align=left;verticalAlign=middle;whiteSpace=wrap;rounded=0;spacingLeft=2;" parent="1" vertex="1">
          <mxGeometry x="280" y="730.87" width="240" height="20" as="geometry" />
        </mxCell>
        <mxCell id="nBIdGO6KBgO2Cm43uwUa-65" value="" style="curved=1;endArrow=oval;html=1;rounded=0;entryX=0.041;entryY=-0.003;entryDx=0;entryDy=0;entryPerimeter=0;exitX=0;exitY=0.25;exitDx=0;exitDy=0;endFill=1;" parent="1" edge="1">
          <mxGeometry width="50" height="50" relative="1" as="geometry">
            <mxPoint x="290" y="811.87" as="sourcePoint" />
            <mxPoint x="280" y="730.87" as="targetPoint" />
            <Array as="points">
              <mxPoint x="270" y="791.87" />
            </Array>
          </mxGeometry>
        </mxCell>
        <mxCell id="nBIdGO6KBgO2Cm43uwUa-66" value="" style="rounded=0;whiteSpace=wrap;html=1;fillColor=#f8cecc;strokeColor=#b85450;" parent="1" vertex="1">
          <mxGeometry x="-60" y="1130" width="390" height="330" as="geometry" />
        </mxCell>
        <mxCell id="nBIdGO6KBgO2Cm43uwUa-77" value="&lt;span style=&quot;background-color: rgb(255, 255, 153);&quot;&gt;widget = QWidget()&lt;/span&gt;" style="text;html=1;strokeColor=none;fillColor=none;align=center;verticalAlign=middle;whiteSpace=wrap;rounded=0;" parent="1" vertex="1">
          <mxGeometry x="-60" y="1440" width="120" height="20" as="geometry" />
        </mxCell>
        <mxCell id="nBIdGO6KBgO2Cm43uwUa-78" value="&lt;font size=&quot;1&quot; style=&quot;&quot;&gt;&lt;b style=&quot;font-size: 26px;&quot;&gt;3&lt;/b&gt;&lt;/font&gt;" style="ellipse;whiteSpace=wrap;html=1;aspect=fixed;" parent="1" vertex="1">
          <mxGeometry x="-200" y="1080" width="40" height="40" as="geometry" />
        </mxCell>
        <mxCell id="nBIdGO6KBgO2Cm43uwUa-79" value="" style="group" parent="1" vertex="1" connectable="0">
          <mxGeometry x="-30" y="1160" width="310" height="270" as="geometry" />
        </mxCell>
        <mxCell id="nBIdGO6KBgO2Cm43uwUa-67" value="" style="rounded=0;whiteSpace=wrap;html=1;fillColor=#f5f5f5;strokeColor=#666666;fontColor=#333333;" parent="nBIdGO6KBgO2Cm43uwUa-79" vertex="1">
          <mxGeometry width="310" height="240" as="geometry" />
        </mxCell>
        <mxCell id="nBIdGO6KBgO2Cm43uwUa-68" value="" style="rounded=0;whiteSpace=wrap;html=1;fillColor=#dae8fc;strokeColor=#6c8ebf;" parent="nBIdGO6KBgO2Cm43uwUa-79" vertex="1">
          <mxGeometry x="10" y="10" width="140" height="200" as="geometry" />
        </mxCell>
        <mxCell id="nBIdGO6KBgO2Cm43uwUa-69" value="QPushButton" style="rounded=0;whiteSpace=wrap;html=1;" parent="nBIdGO6KBgO2Cm43uwUa-79" vertex="1">
          <mxGeometry x="20" y="20" width="120" height="20" as="geometry" />
        </mxCell>
        <mxCell id="nBIdGO6KBgO2Cm43uwUa-70" value="QLabel" style="rounded=0;whiteSpace=wrap;html=1;" parent="nBIdGO6KBgO2Cm43uwUa-79" vertex="1">
          <mxGeometry x="20" y="50" width="120" height="110" as="geometry" />
        </mxCell>
        <mxCell id="nBIdGO6KBgO2Cm43uwUa-71" value="" style="rounded=0;whiteSpace=wrap;html=1;fillColor=#dae8fc;strokeColor=#6c8ebf;" parent="nBIdGO6KBgO2Cm43uwUa-79" vertex="1">
          <mxGeometry x="160" y="10" width="140" height="200" as="geometry" />
        </mxCell>
        <mxCell id="nBIdGO6KBgO2Cm43uwUa-72" value="QVBoxLayout" style="text;html=1;strokeColor=none;fillColor=none;align=center;verticalAlign=middle;whiteSpace=wrap;rounded=0;" parent="nBIdGO6KBgO2Cm43uwUa-79" vertex="1">
          <mxGeometry x="10" y="190" width="90" height="20" as="geometry" />
        </mxCell>
        <mxCell id="nBIdGO6KBgO2Cm43uwUa-73" value="QLabel" style="rounded=0;whiteSpace=wrap;html=1;" parent="nBIdGO6KBgO2Cm43uwUa-79" vertex="1">
          <mxGeometry x="170" y="20" width="120" height="20" as="geometry" />
        </mxCell>
        <mxCell id="nBIdGO6KBgO2Cm43uwUa-74" value="QLineEdit" style="rounded=0;whiteSpace=wrap;html=1;" parent="nBIdGO6KBgO2Cm43uwUa-79" vertex="1">
          <mxGeometry x="170" y="50" width="120" height="110" as="geometry" />
        </mxCell>
        <mxCell id="nBIdGO6KBgO2Cm43uwUa-75" value="QVBoxLayout" style="text;html=1;strokeColor=none;fillColor=none;align=center;verticalAlign=middle;whiteSpace=wrap;rounded=0;" parent="nBIdGO6KBgO2Cm43uwUa-79" vertex="1">
          <mxGeometry x="160" y="190" width="90" height="20" as="geometry" />
        </mxCell>
        <mxCell id="nBIdGO6KBgO2Cm43uwUa-76" value="QHBoxLayout" style="text;html=1;strokeColor=none;fillColor=none;align=center;verticalAlign=middle;whiteSpace=wrap;rounded=0;" parent="nBIdGO6KBgO2Cm43uwUa-79" vertex="1">
          <mxGeometry y="220" width="90" height="20" as="geometry" />
        </mxCell>
        <mxCell id="nBIdGO6KBgO2Cm43uwUa-80" value="" style="curved=1;endArrow=oval;html=1;rounded=0;entryX=0.041;entryY=-0.003;entryDx=0;entryDy=0;entryPerimeter=0;exitX=0;exitY=0.25;exitDx=0;exitDy=0;endFill=1;" parent="1" edge="1">
          <mxGeometry width="50" height="50" relative="1" as="geometry">
            <mxPoint x="-30" y="1211" as="sourcePoint" />
            <mxPoint x="-40" y="1130" as="targetPoint" />
            <Array as="points">
              <mxPoint x="-50" y="1190.87" />
            </Array>
          </mxGeometry>
        </mxCell>
        <mxCell id="nBIdGO6KBgO2Cm43uwUa-81" value="&lt;font face=&quot;Roboto Mono&quot;&gt;&lt;span style=&quot;font-size: 10px; background-color: rgb(255, 255, 153);&quot;&gt;widget.setLayout(layout_hort)&lt;/span&gt;&lt;/font&gt;" style="text;html=1;strokeColor=none;fillColor=none;align=left;verticalAlign=middle;whiteSpace=wrap;rounded=0;spacingLeft=2;" parent="1" vertex="1">
          <mxGeometry x="-40" y="1130.87" width="240" height="20" as="geometry" />
        </mxCell>
        <mxCell id="nBIdGO6KBgO2Cm43uwUa-83" value="QMainWindow" style="text;html=1;strokeColor=none;fillColor=none;align=center;verticalAlign=middle;whiteSpace=wrap;rounded=0;" parent="1" vertex="1">
          <mxGeometry x="-90" y="1480" width="90" height="20" as="geometry" />
        </mxCell>
        <mxCell id="nBIdGO6KBgO2Cm43uwUa-85" value="" style="curved=1;endArrow=oval;html=1;rounded=0;entryX=0.041;entryY=-0.003;entryDx=0;entryDy=0;entryPerimeter=0;exitX=0;exitY=0.25;exitDx=0;exitDy=0;endFill=1;" parent="1" edge="1">
          <mxGeometry width="50" height="50" relative="1" as="geometry">
            <mxPoint x="-60" y="1181.37" as="sourcePoint" />
            <mxPoint x="-70" y="1100.37" as="targetPoint" />
            <Array as="points">
              <mxPoint x="-80" y="1161.2399999999998" />
            </Array>
          </mxGeometry>
        </mxCell>
        <mxCell id="nBIdGO6KBgO2Cm43uwUa-86" value="&lt;font face=&quot;Roboto Mono&quot;&gt;&lt;span style=&quot;font-size: 10px; background-color: rgb(255, 255, 153);&quot;&gt;self.setCentralWidget(widget)&lt;/span&gt;&lt;/font&gt;" style="text;html=1;strokeColor=none;fillColor=none;align=left;verticalAlign=middle;whiteSpace=wrap;rounded=0;spacingLeft=2;" parent="1" vertex="1">
          <mxGeometry x="-70" y="1100" width="240" height="20" as="geometry" />
        </mxCell>
        <mxCell id="nBIdGO6KBgO2Cm43uwUa-87" value="" style="rounded=0;whiteSpace=wrap;html=1;fillColor=#d5e8d4;strokeColor=#82b366;" parent="1" vertex="1">
          <mxGeometry x="-80" y="1640" width="350" height="320" as="geometry" />
        </mxCell>
        <mxCell id="nBIdGO6KBgO2Cm43uwUa-88" value="" style="rounded=0;whiteSpace=wrap;html=1;fillColor=#f8cecc;strokeColor=#b85450;" parent="1" vertex="1">
          <mxGeometry x="-70" y="1650" width="330" height="280" as="geometry" />
        </mxCell>
        <mxCell id="nBIdGO6KBgO2Cm43uwUa-89" value="" style="rounded=0;whiteSpace=wrap;html=1;fillColor=#f5f5f5;strokeColor=#666666;fontColor=#333333;" parent="1" vertex="1">
          <mxGeometry x="-60" y="1660" width="310" height="240" as="geometry" />
        </mxCell>
        <mxCell id="nBIdGO6KBgO2Cm43uwUa-90" value="" style="rounded=0;whiteSpace=wrap;html=1;fillColor=#dae8fc;strokeColor=#6c8ebf;" parent="1" vertex="1">
          <mxGeometry x="-50" y="1670" width="140" height="200" as="geometry" />
        </mxCell>
        <mxCell id="nBIdGO6KBgO2Cm43uwUa-91" value="QPushButton" style="rounded=0;whiteSpace=wrap;html=1;" parent="1" vertex="1">
          <mxGeometry x="-40" y="1680" width="120" height="20" as="geometry" />
        </mxCell>
        <mxCell id="nBIdGO6KBgO2Cm43uwUa-92" value="QLabel" style="rounded=0;whiteSpace=wrap;html=1;" parent="1" vertex="1">
          <mxGeometry x="-40" y="1710" width="120" height="110" as="geometry" />
        </mxCell>
        <mxCell id="nBIdGO6KBgO2Cm43uwUa-93" value="" style="rounded=0;whiteSpace=wrap;html=1;fillColor=#dae8fc;strokeColor=#6c8ebf;" parent="1" vertex="1">
          <mxGeometry x="100" y="1670" width="140" height="200" as="geometry" />
        </mxCell>
        <mxCell id="nBIdGO6KBgO2Cm43uwUa-94" value="QVBoxLayout" style="text;html=1;strokeColor=none;fillColor=none;align=center;verticalAlign=middle;whiteSpace=wrap;rounded=0;" parent="1" vertex="1">
          <mxGeometry x="-50" y="1850" width="90" height="20" as="geometry" />
        </mxCell>
        <mxCell id="nBIdGO6KBgO2Cm43uwUa-95" value="QLabel" style="rounded=0;whiteSpace=wrap;html=1;" parent="1" vertex="1">
          <mxGeometry x="110" y="1680" width="120" height="20" as="geometry" />
        </mxCell>
        <mxCell id="nBIdGO6KBgO2Cm43uwUa-96" value="QLineEdit" style="rounded=0;whiteSpace=wrap;html=1;" parent="1" vertex="1">
          <mxGeometry x="110" y="1710" width="120" height="110" as="geometry" />
        </mxCell>
        <mxCell id="nBIdGO6KBgO2Cm43uwUa-97" value="QVBoxLayout" style="text;html=1;strokeColor=none;fillColor=none;align=center;verticalAlign=middle;whiteSpace=wrap;rounded=0;" parent="1" vertex="1">
          <mxGeometry x="100" y="1850" width="90" height="20" as="geometry" />
        </mxCell>
        <mxCell id="nBIdGO6KBgO2Cm43uwUa-98" value="QHBoxLayout" style="text;html=1;strokeColor=none;fillColor=none;align=center;verticalAlign=middle;whiteSpace=wrap;rounded=0;" parent="1" vertex="1">
          <mxGeometry x="-60" y="1880" width="90" height="20" as="geometry" />
        </mxCell>
        <mxCell id="nBIdGO6KBgO2Cm43uwUa-99" value="QWidget" style="text;html=1;strokeColor=none;fillColor=none;align=center;verticalAlign=middle;whiteSpace=wrap;rounded=0;" parent="1" vertex="1">
          <mxGeometry x="-70" y="1910" width="60" height="20" as="geometry" />
        </mxCell>
        <mxCell id="nBIdGO6KBgO2Cm43uwUa-100" value="QMainWindow" style="text;html=1;strokeColor=none;fillColor=none;align=center;verticalAlign=middle;whiteSpace=wrap;rounded=0;" parent="1" vertex="1">
          <mxGeometry x="-80" y="1940" width="90" height="20" as="geometry" />
        </mxCell>
        <mxCell id="nBIdGO6KBgO2Cm43uwUa-102" value="" style="rounded=0;whiteSpace=wrap;html=1;fillColor=#f8cecc;strokeColor=#b85450;" parent="1" vertex="1">
          <mxGeometry x="360" y="1640" width="330" height="280" as="geometry" />
        </mxCell>
        <mxCell id="nBIdGO6KBgO2Cm43uwUa-103" value="" style="curved=1;endArrow=oval;html=1;rounded=0;entryX=0;entryY=0.087;entryDx=0;entryDy=0;entryPerimeter=0;endFill=1;startArrow=oval;startFill=1;" parent="1" target="nBIdGO6KBgO2Cm43uwUa-102" edge="1">
          <mxGeometry width="50" height="50" relative="1" as="geometry">
            <mxPoint x="60" y="1680" as="sourcePoint" />
            <mxPoint x="70" y="1610" as="targetPoint" />
            <Array as="points">
              <mxPoint x="120" y="1580" />
              <mxPoint x="260" y="1550" />
            </Array>
          </mxGeometry>
        </mxCell>
        <mxCell id="nBIdGO6KBgO2Cm43uwUa-104" value="&lt;font size=&quot;1&quot; style=&quot;&quot;&gt;&lt;b style=&quot;font-size: 26px;&quot;&gt;4&lt;/b&gt;&lt;/font&gt;" style="ellipse;whiteSpace=wrap;html=1;aspect=fixed;" parent="1" vertex="1">
          <mxGeometry x="-200" y="1640" width="40" height="40" as="geometry" />
        </mxCell>
        <mxCell id="nBIdGO6KBgO2Cm43uwUa-105" value="&lt;span style=&quot;background-color: rgb(255, 255, 153);&quot;&gt;button.clicked.connect(self.&lt;/span&gt;&lt;span style=&quot;background-color: rgb(153, 255, 153);&quot;&gt;open_dialog_file&lt;/span&gt;&lt;span style=&quot;background-color: rgb(255, 255, 153);&quot;&gt;)&lt;/span&gt;" style="text;html=1;strokeColor=none;fillColor=none;align=left;verticalAlign=middle;whiteSpace=wrap;rounded=0;spacingLeft=2;" parent="1" vertex="1">
          <mxGeometry x="80" y="1540" width="220" height="20" as="geometry" />
        </mxCell>
        <mxCell id="nBIdGO6KBgO2Cm43uwUa-106" value="Open" style="rounded=0;whiteSpace=wrap;html=1;" parent="1" vertex="1">
          <mxGeometry x="360" y="1620" width="330" height="20" as="geometry" />
        </mxCell>
        <mxCell id="nBIdGO6KBgO2Cm43uwUa-107" value="" style="rounded=0;whiteSpace=wrap;html=1;" parent="1" vertex="1">
          <mxGeometry x="370" y="1670" width="30" height="180" as="geometry" />
        </mxCell>
        <mxCell id="nBIdGO6KBgO2Cm43uwUa-108" value="" style="rounded=0;whiteSpace=wrap;html=1;" parent="1" vertex="1">
          <mxGeometry x="408" y="1650" width="192" height="10" as="geometry" />
        </mxCell>
        <mxCell id="nBIdGO6KBgO2Cm43uwUa-109" value="" style="endArrow=classic;html=1;rounded=0;" parent="1" edge="1">
          <mxGeometry width="50" height="50" relative="1" as="geometry">
            <mxPoint x="640" y="1660" as="sourcePoint" />
            <mxPoint x="640" y="1650" as="targetPoint" />
          </mxGeometry>
        </mxCell>
        <mxCell id="nBIdGO6KBgO2Cm43uwUa-110" value="" style="endArrow=classic;html=1;rounded=0;" parent="1" edge="1">
          <mxGeometry width="50" height="50" relative="1" as="geometry">
            <mxPoint x="620" y="1654.89" as="sourcePoint" />
            <mxPoint x="630" y="1654.89" as="targetPoint" />
          </mxGeometry>
        </mxCell>
        <mxCell id="nBIdGO6KBgO2Cm43uwUa-111" value="" style="endArrow=classic;html=1;rounded=0;" parent="1" edge="1">
          <mxGeometry width="50" height="50" relative="1" as="geometry">
            <mxPoint x="615" y="1654.89" as="sourcePoint" />
            <mxPoint x="605" y="1654.89" as="targetPoint" />
          </mxGeometry>
        </mxCell>
        <mxCell id="nBIdGO6KBgO2Cm43uwUa-113" value="" style="rounded=0;whiteSpace=wrap;html=1;" parent="1" vertex="1">
          <mxGeometry x="650" y="1650" width="10" height="10" as="geometry" />
        </mxCell>
        <mxCell id="nBIdGO6KBgO2Cm43uwUa-114" value="" style="rounded=0;whiteSpace=wrap;html=1;" parent="1" vertex="1">
          <mxGeometry x="670" y="1650" width="10" height="10" as="geometry" />
        </mxCell>
        <mxCell id="nBIdGO6KBgO2Cm43uwUa-115" value="" style="rounded=0;whiteSpace=wrap;html=1;" parent="1" vertex="1">
          <mxGeometry x="408" y="1670" width="272" height="180" as="geometry" />
        </mxCell>
        <mxCell id="nBIdGO6KBgO2Cm43uwUa-116" value="" style="rounded=0;whiteSpace=wrap;html=1;" parent="1" vertex="1">
          <mxGeometry x="408" y="1860" width="232" height="10" as="geometry" />
        </mxCell>
        <mxCell id="nBIdGO6KBgO2Cm43uwUa-117" value="" style="rounded=0;whiteSpace=wrap;html=1;" parent="1" vertex="1">
          <mxGeometry x="408" y="1880" width="232" height="10" as="geometry" />
        </mxCell>
        <mxCell id="nBIdGO6KBgO2Cm43uwUa-118" value="QFileDialog" style="text;html=1;strokeColor=none;fillColor=none;align=center;verticalAlign=middle;whiteSpace=wrap;rounded=0;" parent="1" vertex="1">
          <mxGeometry x="360" y="1900" width="70" height="20" as="geometry" />
        </mxCell>
        <mxCell id="nBIdGO6KBgO2Cm43uwUa-121" value="Open" style="text;html=1;strokeColor=none;fillColor=none;align=center;verticalAlign=middle;whiteSpace=wrap;rounded=0;" parent="1" vertex="1">
          <mxGeometry x="650" y="1860" width="30" height="10" as="geometry" />
        </mxCell>
        <mxCell id="nBIdGO6KBgO2Cm43uwUa-122" value="Cancel" style="text;html=1;strokeColor=none;fillColor=none;align=center;verticalAlign=middle;whiteSpace=wrap;rounded=0;" parent="1" vertex="1">
          <mxGeometry x="650" y="1880" width="30" height="10" as="geometry" />
        </mxCell>
        <mxCell id="nBIdGO6KBgO2Cm43uwUa-123" value="&lt;div&gt;&lt;font style=&quot;background-color: rgb(255, 255, 153);&quot; data-font-src=&quot;https://fonts.googleapis.com/css?family=Roboto+Mono&quot; face=&quot;Roboto Mono&quot;&gt;def &lt;/font&gt;&lt;font style=&quot;background-color: rgb(153, 255, 153);&quot; data-font-src=&quot;https://fonts.googleapis.com/css?family=Roboto+Mono&quot; face=&quot;Roboto Mono&quot;&gt;open_dialog_file&lt;/font&gt;&lt;font style=&quot;background-color: rgb(255, 255, 153);&quot; data-font-src=&quot;https://fonts.googleapis.com/css?family=Roboto+Mono&quot; face=&quot;Roboto Mono&quot;&gt;(self):&lt;/font&gt;&lt;/div&gt;&lt;div&gt;&lt;font style=&quot;background-color: rgb(255, 255, 153);&quot; data-font-src=&quot;https://fonts.googleapis.com/css?family=Roboto+Mono&quot; face=&quot;Roboto Mono&quot;&gt;&amp;nbsp; dialog = QFileDialog()&lt;/font&gt;&lt;/div&gt;&lt;div&gt;&lt;font style=&quot;background-color: rgb(255, 255, 153);&quot; data-font-src=&quot;https://fonts.googleapis.com/css?family=Roboto+Mono&quot; face=&quot;Roboto Mono&quot;&gt;&amp;nbsp; dialog.setFileMode(QFileDialog.AnyFile)&lt;/font&gt;&lt;/div&gt;&lt;div&gt;&lt;font style=&quot;background-color: rgb(255, 255, 153);&quot; data-font-src=&quot;https://fonts.googleapis.com/css?family=Roboto+Mono&quot; face=&quot;Roboto Mono&quot;&gt;&amp;nbsp; dialog.setNameFilter(&quot;*.jpg *.jpeg *.png&quot;)&lt;/font&gt;&lt;/div&gt;&lt;div&gt;&lt;font style=&quot;background-color: rgb(255, 255, 153);&quot; data-font-src=&quot;https://fonts.googleapis.com/css?family=Roboto+Mono&quot; face=&quot;Roboto Mono&quot;&gt;&lt;br&gt;&lt;/font&gt;&lt;/div&gt;&lt;div&gt;&lt;font style=&quot;background-color: rgb(255, 255, 153);&quot; data-font-src=&quot;https://fonts.googleapis.com/css?family=Roboto+Mono&quot; face=&quot;Roboto Mono&quot;&gt;&amp;nbsp; if dialog.exec_():&lt;/font&gt;&lt;/div&gt;&lt;div&gt;&lt;font style=&quot;background-color: rgb(255, 255, 153);&quot; data-font-src=&quot;https://fonts.googleapis.com/css?family=Roboto+Mono&quot; face=&quot;Roboto Mono&quot;&gt;&amp;nbsp; &amp;nbsp; &lt;/font&gt;&lt;font style=&quot;background-color: rgb(51, 255, 255);&quot; data-font-src=&quot;https://fonts.googleapis.com/css?family=Roboto+Mono&quot; face=&quot;Roboto Mono&quot;&gt;self.filename&lt;/font&gt;&lt;font style=&quot;background-color: rgb(255, 255, 153);&quot; data-font-src=&quot;https://fonts.googleapis.com/css?family=Roboto+Mono&quot; face=&quot;Roboto Mono&quot;&gt; = dialog.selectedFiles()[0]&lt;/font&gt;&lt;/div&gt;&lt;div&gt;&lt;font style=&quot;background-color: rgb(255, 255, 153);&quot; data-font-src=&quot;https://fonts.googleapis.com/css?family=Roboto+Mono&quot; face=&quot;Roboto Mono&quot;&gt;&amp;nbsp; &amp;nbsp; self.&lt;/font&gt;&lt;font style=&quot;background-color: rgb(255, 204, 204);&quot; data-font-src=&quot;https://fonts.googleapis.com/css?family=Roboto+Mono&quot; face=&quot;Roboto Mono&quot;&gt;set_image&lt;/font&gt;&lt;font style=&quot;background-color: rgb(255, 255, 153);&quot; data-font-src=&quot;https://fonts.googleapis.com/css?family=Roboto+Mono&quot; face=&quot;Roboto Mono&quot;&gt;()&lt;/font&gt;&lt;/div&gt;&lt;div&gt;&lt;font style=&quot;background-color: rgb(255, 255, 153);&quot; data-font-src=&quot;https://fonts.googleapis.com/css?family=Roboto+Mono&quot; face=&quot;Roboto Mono&quot;&gt;&amp;nbsp; return None&lt;/font&gt;&lt;/div&gt;" style="text;html=1;strokeColor=none;fillColor=none;align=left;verticalAlign=middle;whiteSpace=wrap;rounded=0;spacingLeft=2;" parent="1" vertex="1">
          <mxGeometry x="420" y="1940" width="350" height="130" as="geometry" />
        </mxCell>
        <mxCell id="nBIdGO6KBgO2Cm43uwUa-125" value="images.jpeg" style="text;html=1;strokeColor=none;fillColor=none;align=left;verticalAlign=middle;whiteSpace=wrap;rounded=0;spacingLeft=2;" parent="1" vertex="1">
          <mxGeometry x="420" y="1680" width="30" height="10" as="geometry" />
        </mxCell>
        <mxCell id="nBIdGO6KBgO2Cm43uwUa-126" value="" style="curved=1;endArrow=classic;html=1;rounded=0;entryX=0.75;entryY=1;entryDx=0;entryDy=0;endFill=1;startArrow=none;startFill=0;" parent="1" target="nBIdGO6KBgO2Cm43uwUa-92" edge="1">
          <mxGeometry width="50" height="50" relative="1" as="geometry">
            <mxPoint x="90" y="2010" as="sourcePoint" />
            <mxPoint x="290" y="2024" as="targetPoint" />
            <Array as="points">
              <mxPoint x="30" y="1960" />
              <mxPoint x="90" y="1870" />
            </Array>
          </mxGeometry>
        </mxCell>
        <mxCell id="nBIdGO6KBgO2Cm43uwUa-127" value="&lt;div&gt;&lt;font style=&quot;background-color: rgb(255, 255, 153);&quot; face=&quot;Roboto Mono&quot;&gt;def &lt;/font&gt;&lt;font style=&quot;background-color: rgb(255, 204, 204);&quot; face=&quot;Roboto Mono&quot;&gt;set_image&lt;/font&gt;&lt;font style=&quot;background-color: rgb(255, 255, 153);&quot; face=&quot;Roboto Mono&quot;&gt;(self):&lt;/font&gt;&lt;/div&gt;&lt;div&gt;&lt;font style=&quot;background-color: rgb(255, 255, 153);&quot; face=&quot;Roboto Mono&quot;&gt;&amp;nbsp; self.load_image.setPixmap(QPixmap(&lt;/font&gt;&lt;font style=&quot;background-color: rgb(51, 255, 255);&quot; face=&quot;Roboto Mono&quot;&gt;self.filename&lt;/font&gt;&lt;font style=&quot;background-color: rgb(255, 255, 153);&quot; face=&quot;Roboto Mono&quot;&gt;))&lt;/font&gt;&lt;/div&gt;&lt;div&gt;&lt;font style=&quot;background-color: rgb(255, 255, 153);&quot; face=&quot;Roboto Mono&quot;&gt;&amp;nbsp; self.load_image.setScaledContents(True)&lt;/font&gt;&lt;/div&gt;" style="text;html=1;strokeColor=none;fillColor=none;align=left;verticalAlign=middle;whiteSpace=wrap;rounded=0;spacingLeft=2;" parent="1" vertex="1">
          <mxGeometry x="10" y="2010" width="380" height="50" as="geometry" />
        </mxCell>
      </root>
    </mxGraphModel>
  </diagram>
</mxfile>
